<?xml version="1.0" encoding="UTF-8"?>
<svg id="Layer_2" data-name="Layer 2" xmlns="http://www.w3.org/2000/svg" viewBox="0 0 356.54 67.1">
  <defs>
    <style>
      .cls-1 {
        fill: #463730;
      }
    </style>
  </defs>
  <g id="Layer_1-2" data-name="Layer 1">
    <path class="cls-1" d="M0,60.13V7.15c0-1.8.48-3.17,1.44-4.14s2.34-1.44,4.14-1.44h28.63c1.8,0,3.17.48,4.14,1.44.96.96,1.44,2.34,1.44,4.14v5.95c0,1.8-.48,3.18-1.44,4.14s-2.34,1.44-4.14,1.44l-14.78-.19-.19,7.25,8.18-.09c1.8,0,3.17.48,4.14,1.44.96.96,1.44,2.34,1.44,4.14v4.09c0,1.8-.48,3.17-1.44,4.13s-2.34,1.44-4.14,1.44l-8.18-.09.19,8.09c5.89-.19,11.12-.28,15.71-.28,1.8,0,3.17.48,4.14,1.44.96.96,1.44,2.34,1.44,4.14v5.95c0,1.8-.48,3.18-1.44,4.14s-2.34,1.44-4.14,1.44H5.58c-1.8,0-3.18-.48-4.14-1.44-.96-.96-1.44-2.34-1.44-4.14ZM47.49,60.13V7.15c0-1.8.48-3.17,1.44-4.14s2.34-1.44,4.14-1.44h21.19c5.33,0,9.87,1.33,13.62,4,3.75,2.67,6.51,6.38,8.27,11.15,1.77,4.77,2.65,10.41,2.65,16.92s-.93,12.14-2.79,16.92-4.76,8.49-8.69,11.15c-3.94,2.67-8.69,4-14.27,4h-19.98c-1.8,0-3.18-.48-4.14-1.44-.96-.96-1.44-2.34-1.44-4.14ZM67.2,48.61h2.23c1.61,0,2.93-.19,3.95-.56,1.02-.37,1.87-1.07,2.55-2.09.68-1.02,1.27-2.48,1.77-4.37.5-1.89.74-4.54.74-7.95s-.22-6.17-.65-8.27c-.44-2.11-1.12-3.77-2.05-4.97-.93-1.21-2.63-1.81-5.11-1.81h-3.44v30.02ZM104.19,60.13V7.15c0-1.8.48-3.17,1.44-4.14s2.34-1.44,4.14-1.44h28.63c1.8,0,3.17.48,4.14,1.44.96.96,1.44,2.34,1.44,4.14v5.95c0,1.8-.48,3.18-1.44,4.14s-2.34,1.44-4.14,1.44l-14.78-.19-.19,7.25,8.18-.09c1.8,0,3.17.48,4.14,1.44.96.96,1.44,2.34,1.44,4.14v4.09c0,1.8-.48,3.17-1.44,4.13s-2.34,1.44-4.14,1.44l-8.18-.09.19,8.09c5.89-.19,11.12-.28,15.71-.28,1.8,0,3.17.48,4.14,1.44.96.96,1.44,2.34,1.44,4.14v5.95c0,1.8-.48,3.18-1.44,4.14s-2.34,1.44-4.14,1.44h-29.56c-1.8,0-3.18-.48-4.14-1.44-.96-.96-1.44-2.34-1.44-4.14ZM151.69,60.13V7.15c0-1.8.48-3.17,1.44-4.14s2.34-1.44,4.14-1.44h9.29c1.8,0,3.17.48,4.14,1.44.96.96,1.44,2.34,1.44,4.14,0,22.86-.06,36.81-.19,41.83l11.99-.37c1.8,0,3.17.48,4.14,1.44.96.96,1.44,2.34,1.44,4.14v5.95c0,1.8-.48,3.18-1.44,4.14s-2.34,1.44-4.14,1.44h-26.67c-1.8,0-3.18-.48-4.14-1.44-.96-.96-1.44-2.34-1.44-4.14ZM195.65,60.13V7.15c0-1.8.48-3.17,1.44-4.14s2.34-1.44,4.14-1.44h20.17c6.88,0,12.19,1.81,15.94,5.44,3.75,3.63,5.62,9,5.62,16.13,0,3.29-.46,6.2-1.39,8.74-.93,2.54-2.25,4.76-3.95,6.65-1.7,1.89-3.97,3.44-6.78,4.65-2.82,1.21-5.65,1.81-8.5,1.81l-7.25-.09.28,15.15c0,1.8-.46,3.19-1.39,4.18-.93.99-2.26,1.49-4,1.49h-8.74c-1.8,0-3.18-.48-4.14-1.44-.96-.96-1.44-2.34-1.44-4.14ZM215.36,18.49l-.09,11.15,4.28-.09c3.22,0,4.83-1.89,4.83-5.67,0-3.53-1.55-5.3-4.65-5.3l-4.37-.09ZM309.23,60.13V7.15c0-1.8.48-3.17,1.44-4.14s2.34-1.44,4.14-1.44h20.17c6.88,0,12.19,1.81,15.94,5.44,3.75,3.63,5.62,9,5.62,16.13,0,3.29-.46,6.2-1.39,8.74-.93,2.54-2.25,4.76-3.95,6.65-1.7,1.89-3.97,3.44-6.78,4.65-2.82,1.21-5.65,1.81-8.5,1.81l-7.25-.09.28,15.15c0,1.8-.46,3.19-1.39,4.18-.93.99-2.26,1.49-4,1.49h-8.74c-1.8,0-3.18-.48-4.14-1.44-.96-.96-1.44-2.34-1.44-4.14ZM328.93,18.49l-.09,11.15,4.28-.09c3.22,0,4.83-1.89,4.83-5.67,0-3.53-1.55-5.3-4.65-5.3l-4.37-.09ZM302.31,19.65c-1.15-3.99-2.9-7.46-5.27-10.41-2.35-2.92-5.41-5.21-9.14-6.82-3.75-1.6-8.13-2.42-13.14-2.42s-9.33.81-13.11,2.42c-3.77,1.61-6.85,3.9-9.2,6.82-2.36,2.95-4.11,6.42-5.24,10.41-1.15,4-1.73,8.36-1.73,13.06,0,4.34.47,8.26,1.4,11.76.93,3.5,2.13,6.59,3.63,9.24,1.49,2.67,3.37,4.99,5.63,6.98,2.26,1.97,4.97,3.55,8.13,4.69,3.16,1.15,6.66,1.71,10.51,1.71,5.13,0,9.62-.97,13.42-2.93,3.81-1.94,6.87-4.57,9.19-7.85,2.33-3.28,4.01-6.95,5.07-11,1.05-4.06,1.58-8.26,1.58-12.6,0-4.7-.56-9.06-1.71-13.06ZM268.52,59.26c-.19.47-.64.89-1.33,1.1-.79.24-1.8.12-2.59-.14-.07-.02-.13-.04-.19-.06-.37-.14-.7-.31-.86-.54-.13-.17-.15-.39-.12-.57.07-.58.44-1.14,1-1.55.2-.14.47-.28.75-.32.3-.04.66,0,.97.04.35.03.69.08,1.02.18.32.1.59.24.83.41.23.16.48.37.58.58.14.28.04.59-.07.87ZM280.5,10.89c-.54.7-1.52,1.02-2.38,1.05-.07,0-.14,0-.21,0-.41,0-.81-.09-1.11-.34-.23-.18-.39-.47-.49-.74-.32-.83-.36-1.76-.13-2.59.09-.29.23-.6.47-.78.23-.21.59-.31.88-.42.33-.12.66-.22,1.01-.24.35-.02.68.04,1,.16.31.12.65.29.89.53.31.32.44.8.52,1.23.14.73,0,1.55-.46,2.14ZM289.64,13.74c-.04.09-.08.19-.12.28-.26.53-.59,1.04-1.1,1.3-.37.2-.84.25-1.27.23-1.3-.06-2.57-.53-3.55-1.33-.34-.28-.67-.64-.79-1.07-.14-.43-.06-.97-.04-1.41.02-.51.09-1.02.26-1.51.17-.47.45-.88.78-1.24.35-.34.77-.72,1.23-.89.61-.24,1.32-.12,1.94.02,1.06.24,2.07.86,2.61,1.83.63,1.13.51,2.61.05,3.78Z"/>
  </g>
</svg>